<svg width="516" height="516" viewBox="0 0 516 516" fill="none" xmlns="http://www.w3.org/2000/svg">
<path d="M282.345 17.8789C327.216 26.8913 378.207 51.7965 399.054 94.9942C430.561 160.254 487.228 159.595 501.789 283.183C503.997 301.215 504.239 319.432 502.512 337.515C501.629 346.359 500.188 355.138 498.198 363.801C480.592 440.174 422.542 487.821 356.04 501.644C268.547 519.833 216.72 465.162 185.677 429.194C154.635 393.227 51.6 360.381 36.3264 238.997C33.9174 220.477 33.6577 201.741 35.5524 183.161C40.0519 140.777 57.792 95.6122 89.557 65.897C91.9443 63.6722 94.4039 61.5161 96.9358 59.4287C146.369 18.5896 221.168 5.59118 282.345 17.8789Z" fill="#D4D4D4"/>
<path opacity="0.7" d="M282.345 17.8789C327.216 26.8913 378.207 51.7965 399.054 94.9942C430.561 160.254 487.228 159.595 501.789 283.183C503.997 301.215 504.239 319.432 502.512 337.515C501.629 346.359 500.188 355.138 498.198 363.801C480.592 440.174 422.542 487.821 356.04 501.644C268.547 519.833 216.72 465.162 185.677 429.194C154.635 393.227 51.6 360.381 36.3264 238.997C33.9174 220.477 33.6577 201.741 35.5524 183.161C40.0519 140.777 57.792 95.6122 89.557 65.897C91.9443 63.6722 94.4039 61.5161 96.9358 59.4287C146.369 18.5896 221.168 5.59118 282.345 17.8789Z" fill="#FCFCFC"/>
<path d="M55.4492 59.9023L69.8559 74.281" stroke="#1A1A1A" stroke-width="1.5" stroke-linecap="round" stroke-linejoin="round"/>
<path d="M69.8559 59.9023L55.4492 74.281" stroke="#1A1A1A" stroke-width="1.5" stroke-linecap="round" stroke-linejoin="round"/>
<path d="M461.665 437.63L476.072 452.009" stroke="#1A1A1A" stroke-width="1.5" stroke-linecap="round" stroke-linejoin="round"/>
<path d="M476.072 437.63L461.665 452.009" stroke="#1A1A1A" stroke-width="1.5" stroke-linecap="round" stroke-linejoin="round"/>
<path d="M143.324 136.049L153.118 145.824" stroke="#1A1A1A" stroke-width="1.5" stroke-linecap="round" stroke-linejoin="round"/>
<path d="M153.118 136.049L143.324 145.824" stroke="#1A1A1A" stroke-width="1.5" stroke-linecap="round" stroke-linejoin="round"/>
<path d="M392.707 369.156L402.501 378.931" stroke="#1A1A1A" stroke-width="1.5" stroke-linecap="round" stroke-linejoin="round"/>
<path d="M402.501 369.156L392.707 378.931" stroke="#1A1A1A" stroke-width="1.5" stroke-linecap="round" stroke-linejoin="round"/>
<path d="M94.4072 458.395L104.201 468.169" stroke="#1A1A1A" stroke-width="1.5" stroke-linecap="round" stroke-linejoin="round"/>
<path d="M104.201 458.395L94.4072 468.169" stroke="#1A1A1A" stroke-width="1.5" stroke-linecap="round" stroke-linejoin="round"/>
<path d="M389.621 32.1953L399.425 41.9699" stroke="#1A1A1A" stroke-width="1.5" stroke-linecap="round" stroke-linejoin="round"/>
<path d="M399.425 32.1953L389.621 41.9699" stroke="#1A1A1A" stroke-width="1.5" stroke-linecap="round" stroke-linejoin="round"/>
<path d="M71.0529 116.82C71.0529 115.597 70.6898 114.402 70.0094 113.386C69.329 112.37 68.362 111.578 67.2305 111.11C66.0991 110.642 64.8541 110.52 63.6529 110.758C62.4518 110.997 61.3485 111.585 60.4825 112.45C59.6166 113.314 59.0268 114.415 58.7879 115.614C58.549 116.813 58.6716 118.055 59.1403 119.185C59.6089 120.314 60.4026 121.279 61.4209 121.958C62.4391 122.637 63.6363 123 64.8609 123C66.5032 123 68.0781 122.348 69.2394 121.189C70.4006 120.03 71.0529 118.459 71.0529 116.82Z" stroke="#1A1A1A" stroke-width="1.5" stroke-linecap="round" stroke-linejoin="round"/>
<path d="M269.92 35.2751C269.92 34.0529 269.557 32.858 268.876 31.8418C268.196 30.8255 267.229 30.0334 266.097 29.5656C264.966 29.0979 263.721 28.9755 262.52 29.214C261.319 29.4524 260.215 30.041 259.349 30.9053C258.483 31.7696 257.894 32.8707 257.655 34.0695C257.416 35.2683 257.538 36.5109 258.007 37.6401C258.476 38.7693 259.269 39.7345 260.288 40.4136C261.306 41.0926 262.503 41.4551 263.728 41.4551C265.37 41.4551 266.945 40.804 268.106 39.645C269.267 38.4861 269.92 36.9142 269.92 35.2751Z" stroke="#1A1A1A" stroke-width="1.5" stroke-linecap="round" stroke-linejoin="round"/>
<path d="M461.861 382.237C465.27 382.237 468.033 379.48 468.033 376.078C468.033 372.676 465.27 369.918 461.861 369.918C458.453 369.918 455.69 372.676 455.69 376.078C455.69 379.48 458.453 382.237 461.861 382.237Z" stroke="#1A1A1A" stroke-width="1.5" stroke-linecap="round" stroke-linejoin="round"/>
<path d="M228.299 486.853C228.299 485.631 227.936 484.436 227.256 483.419C226.575 482.403 225.608 481.611 224.477 481.143C223.345 480.676 222.1 480.553 220.899 480.792C219.698 481.03 218.595 481.619 217.729 482.483C216.863 483.347 216.273 484.448 216.034 485.647C215.795 486.846 215.918 488.089 216.386 489.218C216.855 490.347 217.649 491.312 218.667 491.991C219.685 492.67 220.882 493.033 222.107 493.033C223.749 493.033 225.324 492.382 226.485 491.223C227.647 490.064 228.299 488.492 228.299 486.853Z" stroke="#1A1A1A" stroke-width="1.5" stroke-linecap="round" stroke-linejoin="round"/>
<path d="M133.489 326.844C133.489 325.622 133.126 324.427 132.445 323.411C131.765 322.394 130.798 321.602 129.667 321.134C128.535 320.667 127.29 320.544 126.089 320.783C124.888 321.021 123.785 321.61 122.919 322.474C122.053 323.338 121.463 324.44 121.224 325.638C120.985 326.837 121.108 328.08 121.576 329.209C122.045 330.338 122.839 331.303 123.857 331.982C124.875 332.661 126.072 333.024 127.297 333.024C128.939 333.024 130.514 332.373 131.675 331.214C132.837 330.055 133.489 328.483 133.489 326.844Z" stroke="#1A1A1A" stroke-width="1.5" stroke-linecap="round" stroke-linejoin="round"/>
<path d="M501.17 139.901C501.17 138.679 500.807 137.484 500.127 136.468C499.446 135.451 498.479 134.659 497.348 134.192C496.216 133.724 494.971 133.601 493.77 133.84C492.569 134.078 491.466 134.667 490.6 135.531C489.734 136.396 489.144 137.497 488.905 138.695C488.666 139.894 488.789 141.137 489.257 142.266C489.726 143.395 490.52 144.36 491.538 145.04C492.556 145.719 493.753 146.081 494.978 146.081C496.62 146.081 498.195 145.43 499.357 144.271C500.518 143.112 501.17 141.54 501.17 139.901Z" stroke="#1A1A1A" stroke-width="1.5" stroke-linecap="round" stroke-linejoin="round"/>
<path d="M508.229 242.715H7.69873" stroke="black" stroke-width="1.5" stroke-linecap="round" stroke-linejoin="round"/>
<path d="M48.793 302.207L51.5071 326.834C51.5071 334.044 63.6744 339.935 78.6797 339.935C93.685 339.935 105.842 334.075 105.842 326.834L108.566 302.207H48.793Z" fill="#FFB84C" stroke="black" stroke-width="1.5" stroke-linecap="round" stroke-linejoin="round"/>
<path d="M46.8428 287.643V302.825C46.8428 306.708 61.0947 311.539 78.68 311.539C96.2653 311.539 110.517 306.708 110.517 302.825V287.643H46.8428Z" fill="#FFB84C" stroke="black" stroke-width="1.5" stroke-linecap="round" stroke-linejoin="round"/>
<path d="M78.68 296.645C96.2632 296.645 110.517 292.615 110.517 287.643C110.517 282.671 96.2632 278.641 78.68 278.641C61.0968 278.641 46.8428 282.671 46.8428 287.643C46.8428 292.615 61.0968 296.645 78.68 296.645Z" fill="#FFB84C" stroke="black" stroke-width="1.5" stroke-linecap="round" stroke-linejoin="round"/>
<path d="M102.989 287.643C102.989 288.355 102.474 289.147 101.262 289.958C100.068 290.756 98.3071 291.494 96.0867 292.122C91.6526 293.375 85.4983 294.157 78.6799 294.157C71.8615 294.157 65.7071 293.375 61.2731 292.122C59.0527 291.494 57.292 290.756 56.0981 289.958C54.8856 289.147 54.3706 288.355 54.3706 287.643C54.3706 286.931 54.8856 286.139 56.0981 285.329C57.292 284.53 59.0527 283.792 61.2731 283.164C65.7071 281.911 71.8615 281.129 78.6799 281.129C85.4983 281.129 91.6526 281.911 96.0867 283.164C98.3071 283.792 100.068 284.53 101.262 285.329C102.474 286.139 102.989 286.931 102.989 287.643Z" fill="black" stroke="black"/>
<path d="M31.0196 195.243L31.0343 195.265L31.042 195.274C31.0447 195.279 31.0521 195.29 31.0651 195.312C31.0873 195.349 31.117 195.401 31.154 195.469C31.2276 195.603 31.3234 195.784 31.4344 195.998C31.656 196.425 31.933 196.974 32.2042 197.516C32.4751 198.058 32.7394 198.593 32.9351 198.992C32.9437 199.009 32.9521 199.026 32.9604 199.043C32.8321 199.062 32.6877 199.082 32.5291 199.104C31.8535 199.197 30.9239 199.312 29.9046 199.403C27.8367 199.587 25.4983 199.657 24.1264 199.282C22.9077 198.948 21.5794 198.402 20.44 197.638C19.2985 196.873 18.3769 195.912 17.9156 194.758L17.9122 194.75L17.9085 194.742C17.675 194.214 17.5558 193.644 17.5586 193.067C17.5615 192.491 17.6864 191.921 17.9251 191.396C18.1639 190.871 18.5111 190.402 18.9442 190.02C19.3757 189.639 19.8827 189.354 20.4323 189.182C22.0905 188.712 24.2259 189.447 26.2723 190.767C28.2969 192.072 30.0922 193.86 31.0196 195.243Z" fill="black" stroke="black"/>
<path d="M92.4077 190.53C92.4048 190.552 92.4019 190.575 92.399 190.597C92.2786 190.54 92.1425 190.476 91.9929 190.404C91.3788 190.11 90.54 189.696 89.6398 189.213C87.8134 188.234 85.822 187.017 84.8829 185.969L84.8819 185.968C84.0307 185.024 83.2261 183.84 82.7033 182.58C82.1798 181.317 81.9514 180.008 82.2034 178.792L82.2052 178.784L82.2067 178.775C82.3039 178.205 82.5199 177.662 82.841 177.181C83.1621 176.699 83.5811 176.291 84.0707 175.982C84.5603 175.672 85.1097 175.469 85.6832 175.385C86.2549 175.302 86.8378 175.339 87.3942 175.494C89.0542 176.001 90.4311 177.782 91.4042 180.006C92.3669 182.207 92.8651 184.685 92.8651 186.344C92.8651 186.342 92.8646 186.36 92.8607 186.414C92.8572 186.461 92.8519 186.524 92.8449 186.602C92.8309 186.756 92.8107 186.962 92.7861 187.202C92.737 187.682 92.6708 188.294 92.6026 188.896C92.5343 189.499 92.4643 190.09 92.4077 190.53Z" fill="black" stroke="black"/>
<mask id="path-28-inside-1_319_876" fill="white">
<path d="M109.464 163.869C105.563 164.014 101.766 169.926 100.816 173.273C100.734 173.572 99.9803 178.238 100.042 178.227H100.104C99.5056 179.154 98.8554 180.153 98.1846 181.317C96.9462 183.377 95.5737 185.715 94.2424 188.362C92.7831 191.196 91.4909 194.113 90.3724 197.097C89.1025 200.438 88.1321 203.885 87.4725 207.397C87.4673 207.441 87.4673 207.486 87.4725 207.531C87.328 206.398 86.812 203.246 86.7501 203.009C85.8109 199.651 82.0235 193.739 78.1225 193.585C77.4736 193.577 76.8303 193.706 76.2347 193.963C75.639 194.221 75.1043 194.6 74.6652 195.077C74.2262 195.554 73.8927 196.118 73.6865 196.732C73.4803 197.346 73.4059 197.997 73.4682 198.642C73.6437 201.382 76.0069 203.792 78.1741 205.244C80.6303 206.861 86.9152 207.87 87.4105 207.943C86.8272 211.531 86.4824 215.154 86.3785 218.788C86.3166 220.896 86.3166 223.025 86.3785 225.174C86.2237 224.196 86.0689 223.331 86.038 223.207C85.0989 219.86 81.3114 213.937 77.4105 213.783C76.762 213.777 76.1195 213.907 75.5246 214.165C74.9297 214.422 74.3956 214.802 73.9569 215.279C73.5182 215.755 73.1847 216.319 72.9778 216.932C72.771 217.545 72.6955 218.195 72.7561 218.84C72.9316 221.58 75.2949 223.99 77.4724 225.452C79.6499 226.915 85.0163 227.863 86.4301 228.099C86.4301 228.923 86.4301 229.737 86.4301 230.561C86.523 234.496 86.6365 238.42 86.6365 242.282C86.6365 243.642 86.6365 244.981 86.5333 246.32C86.3992 245.455 86.2753 244.723 86.2444 244.61C85.3053 241.263 81.5178 235.34 77.6169 235.186C76.9679 235.178 76.3247 235.308 75.729 235.565C75.1333 235.822 74.5986 236.201 74.1596 236.678C73.7205 237.155 73.3871 237.719 73.1808 238.333C72.9746 238.948 72.9002 239.598 72.9625 240.243C73.138 242.993 75.5013 245.393 77.6685 246.855C79.8357 248.318 84.6964 249.173 86.3785 249.461C86.296 250.831 86.2031 252.201 86.0586 253.581C85.9348 254.477 85.8832 255.353 85.7077 256.259C85.5323 257.166 85.4085 258.031 85.2537 258.906C84.9131 260.585 84.5622 262.316 84.2217 263.943C83.9637 265.076 83.6953 266.147 83.427 267.229C83.427 265.879 83.427 263.232 83.427 263.016C82.9401 260.005 81.6895 257.169 79.7944 254.776C79.7584 254.427 79.6892 254.082 79.588 253.746C79.4191 253.115 79.1179 252.527 78.7043 252.021C78.2907 251.515 77.7742 251.102 77.1889 250.81C76.6036 250.518 75.9629 250.353 75.309 250.327C74.6551 250.3 74.0031 250.412 73.396 250.656C69.8046 252.191 68.3908 259.071 68.7107 262.532C68.7107 262.738 69.1854 264.932 69.495 266.312C69.1854 265.529 68.8965 264.767 68.5765 263.964C67.947 262.367 67.2659 260.802 66.5125 259.112L65.3773 256.671C65.0058 255.847 64.5208 255.034 64.0873 254.199C63.0553 252.294 61.9201 250.409 60.7333 248.534C62.1265 247.978 67.0492 245.939 68.8758 244.064C70.7025 242.19 72.4878 239.337 72.075 236.617C72.0001 235.975 71.7902 235.355 71.459 234.798C71.1279 234.242 70.6829 233.761 70.1532 233.388C69.6234 233.015 69.0208 232.757 68.3846 232.632C67.7484 232.507 67.0929 232.517 66.4609 232.662C62.6838 233.63 60.2689 240.222 60.0316 243.693C60.0316 243.91 60.1451 246.413 60.2483 247.813C59.5259 246.691 58.8035 245.568 58.0398 244.466C55.821 241.263 53.4784 238.09 51.1564 234.918C50.434 233.939 49.7425 232.961 49.0408 231.993C49.5361 231.797 55.4392 229.5 57.4825 227.409C59.2989 225.545 61.0945 222.671 60.6817 219.952C60.6068 219.309 60.3969 218.69 60.0657 218.133C59.7346 217.577 59.2896 217.096 58.7599 216.723C58.2301 216.35 57.6275 216.092 56.9913 215.967C56.3551 215.842 55.6997 215.852 55.0677 215.997C51.2905 216.965 48.8757 223.557 48.6383 227.028C48.6383 227.286 48.8137 230.901 48.9066 231.807C47.3586 229.665 45.8106 227.512 44.4277 225.318C42.5081 222.379 40.7844 219.317 39.2677 216.152C39.4948 216.059 45.6661 213.69 47.7611 211.547C49.5774 209.683 51.3731 206.81 50.9603 204.09C50.9002 203.443 50.7035 202.816 50.3831 202.25C50.0628 201.684 49.626 201.193 49.1015 200.807C48.577 200.422 47.9768 200.152 47.3402 200.015C46.7036 199.878 46.0452 199.877 45.4081 200.012C41.631 200.98 39.2161 207.572 38.9788 211.043C38.9788 211.269 39.1026 214.019 39.2058 215.328L38.9891 215.379C37.5425 212.15 36.3856 208.8 35.5319 205.368C35.0365 203.483 34.6753 201.66 34.3554 199.867C35.5525 199.548 41.0015 198.003 43.0965 196.283C45.1914 194.563 47.2245 191.967 47.0903 189.228C47.0876 188.579 46.9474 187.937 46.679 187.346C46.4105 186.755 46.0199 186.227 45.5326 185.797C45.0453 185.367 44.4725 185.045 43.8517 184.852C43.2308 184.658 42.5761 184.598 41.9303 184.675C38.0603 185.231 34.9024 191.504 34.3141 194.975C34.3141 195.16 34.1697 197.097 34.1077 198.508C33.9736 197.694 33.8291 196.86 33.7156 196.087C33.3028 193.173 33.0964 190.474 32.9416 188.084C32.859 186.725 32.8074 185.499 32.7765 184.346C33.8085 183.419 37.8023 179.618 38.8446 177.136C39.8869 174.653 40.5061 171.419 39.1336 169.04C38.8328 168.462 38.4125 167.954 37.9005 167.55C37.3884 167.146 36.7963 166.855 36.1633 166.696C35.5302 166.538 34.8706 166.515 34.2281 166.629C33.5856 166.744 32.9747 166.993 32.4359 167.361C29.2573 169.627 29.3399 176.631 30.4235 179.958C30.5164 180.246 32.4875 184.562 32.4875 184.51L32.5494 184.459C32.5494 185.571 32.5494 186.756 32.6217 188.053C32.7352 190.453 32.8797 193.203 33.2305 196.098C33.583 199.267 34.1171 202.414 34.8301 205.522C35.6435 209.007 36.7659 212.412 38.1841 215.698C38.188 215.736 38.188 215.774 38.1841 215.812C37.4411 214.946 35.2739 212.598 35.0881 212.433C32.4565 210.157 26.0169 207.283 22.7041 209.343C22.1586 209.693 21.6931 210.153 21.3382 210.694C20.9832 211.236 20.7469 211.846 20.6446 212.485C20.5423 213.124 20.5764 213.777 20.7445 214.402C20.9127 215.026 21.2112 215.609 21.6205 216.11C23.2821 218.304 26.5948 219.036 29.1954 219.036C32.1366 219.036 37.9365 216.409 38.3905 216.203C39.8987 219.512 41.6224 222.719 43.5505 225.803C44.6651 227.605 45.8416 229.387 47.049 231.158C46.3782 230.427 45.7693 229.789 45.6765 229.706C43.0449 227.43 36.6052 224.556 33.2925 226.616C32.7479 226.968 32.2835 227.43 31.9294 227.972C31.5754 228.514 31.3396 229.125 31.2374 229.764C31.1352 230.403 31.1689 231.057 31.3363 231.682C31.5036 232.307 31.8009 232.89 32.2089 233.394C33.8704 235.587 37.1831 236.308 39.7941 236.308C42.405 236.308 47.4205 234.176 48.7312 233.589L50.1244 235.649C52.3845 238.873 54.6549 242.087 56.7808 245.311C57.5341 246.443 58.2256 247.587 58.9273 248.73C58.3391 248.081 57.8334 247.546 57.7405 247.473C55.1089 245.197 48.6796 242.324 45.3565 244.384C44.8159 244.739 44.3561 245.204 44.007 245.748C43.6579 246.293 43.4272 246.904 43.3299 247.543C43.2326 248.182 43.2709 248.834 43.4422 249.457C43.6136 250.081 43.9142 250.661 44.3245 251.161C45.9861 253.355 49.2988 254.076 51.9097 254.076C54.5207 254.076 59.0512 252.15 60.6095 251.46C61.2906 252.654 61.9821 253.839 62.5909 255.023C62.9831 255.847 63.4269 256.609 63.7777 257.454C64.1286 258.299 64.5105 259.102 64.8717 259.916C65.5012 261.502 66.172 263.14 66.7499 264.705C67.1627 265.787 67.5342 266.837 67.9161 267.888C67.173 266.745 65.6973 264.551 65.5528 264.376C63.2927 261.729 57.369 257.938 53.757 259.432C53.1691 259.7 52.6442 260.089 52.2162 260.572C51.7881 261.056 51.4665 261.624 51.2719 262.239C51.0774 262.855 51.0144 263.504 51.0869 264.145C51.1595 264.786 51.3659 265.405 51.693 265.962C53.0037 268.382 56.1719 269.608 58.7416 269.999C61.5693 270.432 67.4723 268.805 68.205 268.599C68.8242 270.339 69.4125 272.039 69.9388 273.645C71.7654 279.177 73.0348 283.853 73.9533 287.149L76.5745 286.768C76.5745 286.695 76.5745 286.634 76.5126 286.551C75.5529 283.224 74.1081 278.497 72.1266 272.904C71.5074 271.132 70.8057 269.258 70.0626 267.332C71.7693 266.353 73.4134 265.269 74.9853 264.087C77.2763 265.941 82.7046 267.713 83.4064 267.929C82.9626 269.721 82.5189 271.462 82.0648 273.079C80.5374 278.692 79.041 283.317 77.9368 286.551L80.8057 286.139C81.8377 282.936 83.0245 278.692 84.2836 273.666C84.7377 271.843 85.1917 269.896 85.6458 267.888C86.3889 267.888 92.5086 268.279 95.1918 267.249C97.617 266.322 100.455 264.458 101.219 261.821C101.421 261.206 101.491 260.555 101.425 259.911C101.358 259.267 101.156 258.644 100.831 258.083C100.507 257.522 100.068 257.036 99.5425 256.656C99.017 256.276 98.4172 256.011 97.7821 255.878C93.9431 255.178 88.9585 260.142 87.3073 263.201C87.2145 263.387 86.3785 265.467 85.8729 266.786C86.0586 265.962 86.2341 265.169 86.4095 264.324C86.7604 262.645 87.07 260.966 87.4415 259.174C87.5757 258.299 87.6995 257.413 87.8337 256.517C87.9678 255.621 88.0297 254.673 88.1329 253.746C88.329 251.583 88.4219 249.389 88.4632 247.175C89.9389 247.484 95.1712 248.493 97.7512 247.937C100.331 247.381 103.376 245.97 104.531 243.477C104.824 242.899 104.991 242.266 105.022 241.619C105.053 240.973 104.947 240.327 104.711 239.723C104.476 239.12 104.116 238.573 103.654 238.118C103.193 237.663 102.641 237.309 102.034 237.081C98.3497 235.814 92.6634 239.965 90.5685 242.746C90.4446 242.921 89.1649 245.084 88.5045 246.289C88.5045 244.95 88.5045 243.621 88.5045 242.282C88.4322 238.389 88.2258 234.454 88.0401 230.52C88.0401 229.315 87.9472 228.12 87.8956 226.915C88.4219 227.028 94.6139 228.367 97.4725 227.749C100.022 227.193 103.107 225.782 104.263 223.289C104.567 222.693 104.738 222.038 104.763 221.37C104.788 220.702 104.667 220.036 104.409 219.419C104.151 218.801 103.762 218.248 103.268 217.795C102.774 217.343 102.187 217.004 101.549 216.8C97.8647 215.534 92.1784 219.684 90.0834 222.465C89.9286 222.671 88.102 225.792 87.6685 226.585C87.5653 223.938 87.4931 221.301 87.5241 218.706C87.5434 215.192 87.7916 211.682 88.2671 208.2C88.5148 208.2 94.9751 209.673 97.906 209.034C100.445 208.488 103.53 207.077 104.686 204.585C104.967 204.009 105.125 203.381 105.149 202.741C105.173 202.101 105.063 201.463 104.826 200.868C104.589 200.273 104.23 199.733 103.773 199.284C103.315 198.835 102.769 198.487 102.168 198.261C98.4839 196.994 92.7976 201.145 90.7129 203.926C90.5685 204.101 89.1753 206.48 88.5354 207.623L88.329 207.551C88.894 204.045 89.7783 200.597 90.9709 197.251C91.6005 195.408 92.3022 193.688 93.0349 192.019C94.2114 192.41 99.6088 194.079 102.323 193.842C105.037 193.605 108.133 192.513 109.547 190.155C109.901 189.613 110.137 189.003 110.24 188.364C110.342 187.726 110.308 187.073 110.141 186.448C109.973 185.823 109.676 185.24 109.268 184.738C108.859 184.235 108.35 183.825 107.772 183.532C104.242 181.863 98.1433 185.365 95.7491 187.899C95.6253 188.033 94.4591 189.578 93.6335 190.721C93.9637 189.98 94.3043 189.197 94.6655 188.486C95.9245 185.829 97.2455 183.47 98.4323 181.389C99.1134 180.205 99.7533 179.154 100.372 178.176C101.724 177.96 107.163 177.002 109.392 175.539C111.621 174.077 113.933 171.677 114.108 168.937C114.172 168.292 114.099 167.641 113.894 167.027C113.689 166.412 113.357 165.847 112.919 165.369C112.481 164.891 111.947 164.511 111.352 164.252C110.756 163.994 110.113 163.863 109.464 163.869Z"/>
</mask>
<path d="M109.464 163.869C105.563 164.014 101.766 169.926 100.816 173.273C100.734 173.572 99.9803 178.238 100.042 178.227H100.104C99.5056 179.154 98.8554 180.153 98.1846 181.317C96.9462 183.377 95.5737 185.715 94.2424 188.362C92.7831 191.196 91.4909 194.113 90.3724 197.097C89.1025 200.438 88.1321 203.885 87.4725 207.397C87.4673 207.441 87.4673 207.486 87.4725 207.531C87.328 206.398 86.812 203.246 86.7501 203.009C85.8109 199.651 82.0235 193.739 78.1225 193.585C77.4736 193.577 76.8303 193.706 76.2347 193.963C75.639 194.221 75.1043 194.6 74.6652 195.077C74.2262 195.554 73.8927 196.118 73.6865 196.732C73.4803 197.346 73.4059 197.997 73.4682 198.642C73.6437 201.382 76.0069 203.792 78.1741 205.244C80.6303 206.861 86.9152 207.87 87.4105 207.943C86.8272 211.531 86.4824 215.154 86.3785 218.788C86.3166 220.896 86.3166 223.025 86.3785 225.174C86.2237 224.196 86.0689 223.331 86.038 223.207C85.0989 219.86 81.3114 213.937 77.4105 213.783C76.762 213.777 76.1195 213.907 75.5246 214.165C74.9297 214.422 74.3956 214.802 73.9569 215.279C73.5182 215.755 73.1847 216.319 72.9778 216.932C72.771 217.545 72.6955 218.195 72.7561 218.84C72.9316 221.58 75.2949 223.99 77.4724 225.452C79.6499 226.915 85.0163 227.863 86.4301 228.099C86.4301 228.923 86.4301 229.737 86.4301 230.561C86.523 234.496 86.6365 238.42 86.6365 242.282C86.6365 243.642 86.6365 244.981 86.5333 246.32C86.3992 245.455 86.2753 244.723 86.2444 244.61C85.3053 241.263 81.5178 235.34 77.6169 235.186C76.9679 235.178 76.3247 235.308 75.729 235.565C75.1333 235.822 74.5986 236.201 74.1596 236.678C73.7205 237.155 73.3871 237.719 73.1808 238.333C72.9746 238.948 72.9002 239.598 72.9625 240.243C73.138 242.993 75.5013 245.393 77.6685 246.855C79.8357 248.318 84.6964 249.173 86.3785 249.461C86.296 250.831 86.2031 252.201 86.0586 253.581C85.9348 254.477 85.8832 255.353 85.7077 256.259C85.5323 257.166 85.4085 258.031 85.2537 258.906C84.9131 260.585 84.5622 262.316 84.2217 263.943C83.9637 265.076 83.6953 266.147 83.427 267.229C83.427 265.879 83.427 263.232 83.427 263.016C82.9401 260.005 81.6895 257.169 79.7944 254.776C79.7584 254.427 79.6892 254.082 79.588 253.746C79.4191 253.115 79.1179 252.527 78.7043 252.021C78.2907 251.515 77.7742 251.102 77.1889 250.81C76.6036 250.518 75.9629 250.353 75.309 250.327C74.6551 250.3 74.0031 250.412 73.396 250.656C69.8046 252.191 68.3908 259.071 68.7107 262.532C68.7107 262.738 69.1854 264.932 69.495 266.312C69.1854 265.529 68.8965 264.767 68.5765 263.964C67.947 262.367 67.2659 260.802 66.5125 259.112L65.3773 256.671C65.0058 255.847 64.5208 255.034 64.0873 254.199C63.0553 252.294 61.9201 250.409 60.7333 248.534C62.1265 247.978 67.0492 245.939 68.8758 244.064C70.7025 242.19 72.4878 239.337 72.075 236.617C72.0001 235.975 71.7902 235.355 71.459 234.798C71.1279 234.242 70.6829 233.761 70.1532 233.388C69.6234 233.015 69.0208 232.757 68.3846 232.632C67.7484 232.507 67.0929 232.517 66.4609 232.662C62.6838 233.63 60.2689 240.222 60.0316 243.693C60.0316 243.91 60.1451 246.413 60.2483 247.813C59.5259 246.691 58.8035 245.568 58.0398 244.466C55.821 241.263 53.4784 238.09 51.1564 234.918C50.434 233.939 49.7425 232.961 49.0408 231.993C49.5361 231.797 55.4392 229.5 57.4825 227.409C59.2989 225.545 61.0945 222.671 60.6817 219.952C60.6068 219.309 60.3969 218.69 60.0657 218.133C59.7346 217.577 59.2896 217.096 58.7599 216.723C58.2301 216.35 57.6275 216.092 56.9913 215.967C56.3551 215.842 55.6997 215.852 55.0677 215.997C51.2905 216.965 48.8757 223.557 48.6383 227.028C48.6383 227.286 48.8137 230.901 48.9066 231.807C47.3586 229.665 45.8106 227.512 44.4277 225.318C42.5081 222.379 40.7844 219.317 39.2677 216.152C39.4948 216.059 45.6661 213.69 47.7611 211.547C49.5774 209.683 51.3731 206.81 50.9603 204.09C50.9002 203.443 50.7035 202.816 50.3831 202.25C50.0628 201.684 49.626 201.193 49.1015 200.807C48.577 200.422 47.9768 200.152 47.3402 200.015C46.7036 199.878 46.0452 199.877 45.4081 200.012C41.631 200.98 39.2161 207.572 38.9788 211.043C38.9788 211.269 39.1026 214.019 39.2058 215.328L38.9891 215.379C37.5425 212.15 36.3856 208.8 35.5319 205.368C35.0365 203.483 34.6753 201.66 34.3554 199.867C35.5525 199.548 41.0015 198.003 43.0965 196.283C45.1914 194.563 47.2245 191.967 47.0903 189.228C47.0876 188.579 46.9474 187.937 46.679 187.346C46.4105 186.755 46.0199 186.227 45.5326 185.797C45.0453 185.367 44.4725 185.045 43.8517 184.852C43.2308 184.658 42.5761 184.598 41.9303 184.675C38.0603 185.231 34.9024 191.504 34.3141 194.975C34.3141 195.16 34.1697 197.097 34.1077 198.508C33.9736 197.694 33.8291 196.86 33.7156 196.087C33.3028 193.173 33.0964 190.474 32.9416 188.084C32.859 186.725 32.8074 185.499 32.7765 184.346C33.8085 183.419 37.8023 179.618 38.8446 177.136C39.8869 174.653 40.5061 171.419 39.1336 169.04C38.8328 168.462 38.4125 167.954 37.9005 167.55C37.3884 167.146 36.7963 166.855 36.1633 166.696C35.5302 166.538 34.8706 166.515 34.2281 166.629C33.5856 166.744 32.9747 166.993 32.4359 167.361C29.2573 169.627 29.3399 176.631 30.4235 179.958C30.5164 180.246 32.4875 184.562 32.4875 184.51L32.5494 184.459C32.5494 185.571 32.5494 186.756 32.6217 188.053C32.7352 190.453 32.8797 193.203 33.2305 196.098C33.583 199.267 34.1171 202.414 34.8301 205.522C35.6435 209.007 36.7659 212.412 38.1841 215.698C38.188 215.736 38.188 215.774 38.1841 215.812C37.4411 214.946 35.2739 212.598 35.0881 212.433C32.4565 210.157 26.0169 207.283 22.7041 209.343C22.1586 209.693 21.6931 210.153 21.3382 210.694C20.9832 211.236 20.7469 211.846 20.6446 212.485C20.5423 213.124 20.5764 213.777 20.7445 214.402C20.9127 215.026 21.2112 215.609 21.6205 216.11C23.2821 218.304 26.5948 219.036 29.1954 219.036C32.1366 219.036 37.9365 216.409 38.3905 216.203C39.8987 219.512 41.6224 222.719 43.5505 225.803C44.6651 227.605 45.8416 229.387 47.049 231.158C46.3782 230.427 45.7693 229.789 45.6765 229.706C43.0449 227.43 36.6052 224.556 33.2925 226.616C32.7479 226.968 32.2835 227.43 31.9294 227.972C31.5754 228.514 31.3396 229.125 31.2374 229.764C31.1352 230.403 31.1689 231.057 31.3363 231.682C31.5036 232.307 31.8009 232.89 32.2089 233.394C33.8704 235.587 37.1831 236.308 39.7941 236.308C42.405 236.308 47.4205 234.176 48.7312 233.589L50.1244 235.649C52.3845 238.873 54.6549 242.087 56.7808 245.311C57.5341 246.443 58.2256 247.587 58.9273 248.73C58.3391 248.081 57.8334 247.546 57.7405 247.473C55.1089 245.197 48.6796 242.324 45.3565 244.384C44.8159 244.739 44.3561 245.204 44.007 245.748C43.6579 246.293 43.4272 246.904 43.3299 247.543C43.2326 248.182 43.2709 248.834 43.4422 249.457C43.6136 250.081 43.9142 250.661 44.3245 251.161C45.9861 253.355 49.2988 254.076 51.9097 254.076C54.5207 254.076 59.0512 252.15 60.6095 251.46C61.2906 252.654 61.9821 253.839 62.5909 255.023C62.9831 255.847 63.4269 256.609 63.7777 257.454C64.1286 258.299 64.5105 259.102 64.8717 259.916C65.5012 261.502 66.172 263.14 66.7499 264.705C67.1627 265.787 67.5342 266.837 67.9161 267.888C67.173 266.745 65.6973 264.551 65.5528 264.376C63.2927 261.729 57.369 257.938 53.757 259.432C53.1691 259.7 52.6442 260.089 52.2162 260.572C51.7881 261.056 51.4665 261.624 51.2719 262.239C51.0774 262.855 51.0144 263.504 51.0869 264.145C51.1595 264.786 51.3659 265.405 51.693 265.962C53.0037 268.382 56.1719 269.608 58.7416 269.999C61.5693 270.432 67.4723 268.805 68.205 268.599C68.8242 270.339 69.4125 272.039 69.9388 273.645C71.7654 279.177 73.0348 283.853 73.9533 287.149L76.5745 286.768C76.5745 286.695 76.5745 286.634 76.5126 286.551C75.5529 283.224 74.1081 278.497 72.1266 272.904C71.5074 271.132 70.8057 269.258 70.0626 267.332C71.7693 266.353 73.4134 265.269 74.9853 264.087C77.2763 265.941 82.7046 267.713 83.4064 267.929C82.9626 269.721 82.5189 271.462 82.0648 273.079C80.5374 278.692 79.041 283.317 77.9368 286.551L80.8057 286.139C81.8377 282.936 83.0245 278.692 84.2836 273.666C84.7377 271.843 85.1917 269.896 85.6458 267.888C86.3889 267.888 92.5086 268.279 95.1918 267.249C97.617 266.322 100.455 264.458 101.219 261.821C101.421 261.206 101.491 260.555 101.425 259.911C101.358 259.267 101.156 258.644 100.831 258.083C100.507 257.522 100.068 257.036 99.5425 256.656C99.017 256.276 98.4172 256.011 97.7821 255.878C93.9431 255.178 88.9585 260.142 87.3073 263.201C87.2145 263.387 86.3785 265.467 85.8729 266.786C86.0586 265.962 86.2341 265.169 86.4095 264.324C86.7604 262.645 87.07 260.966 87.4415 259.174C87.5757 258.299 87.6995 257.413 87.8337 256.517C87.9678 255.621 88.0297 254.673 88.1329 253.746C88.329 251.583 88.4219 249.389 88.4632 247.175C89.9389 247.484 95.1712 248.493 97.7512 247.937C100.331 247.381 103.376 245.97 104.531 243.477C104.824 242.899 104.991 242.266 105.022 241.619C105.053 240.973 104.947 240.327 104.711 239.723C104.476 239.12 104.116 238.573 103.654 238.118C103.193 237.663 102.641 237.309 102.034 237.081C98.3497 235.814 92.6634 239.965 90.5685 242.746C90.4446 242.921 89.1649 245.084 88.5045 246.289C88.5045 244.95 88.5045 243.621 88.5045 242.282C88.4322 238.389 88.2258 234.454 88.0401 230.52C88.0401 229.315 87.9472 228.12 87.8956 226.915C88.4219 227.028 94.6139 228.367 97.4725 227.749C100.022 227.193 103.107 225.782 104.263 223.289C104.567 222.693 104.738 222.038 104.763 221.37C104.788 220.702 104.667 220.036 104.409 219.419C104.151 218.801 103.762 218.248 103.268 217.795C102.774 217.343 102.187 217.004 101.549 216.8C97.8647 215.534 92.1784 219.684 90.0834 222.465C89.9286 222.671 88.102 225.792 87.6685 226.585C87.5653 223.938 87.4931 221.301 87.5241 218.706C87.5434 215.192 87.7916 211.682 88.2671 208.2C88.5148 208.2 94.9751 209.673 97.906 209.034C100.445 208.488 103.53 207.077 104.686 204.585C104.967 204.009 105.125 203.381 105.149 202.741C105.173 202.101 105.063 201.463 104.826 200.868C104.589 200.273 104.23 199.733 103.773 199.284C103.315 198.835 102.769 198.487 102.168 198.261C98.4839 196.994 92.7976 201.145 90.7129 203.926C90.5685 204.101 89.1753 206.48 88.5354 207.623L88.329 207.551C88.894 204.045 89.7783 200.597 90.9709 197.251C91.6005 195.408 92.3022 193.688 93.0349 192.019C94.2114 192.41 99.6088 194.079 102.323 193.842C105.037 193.605 108.133 192.513 109.547 190.155C109.901 189.613 110.137 189.003 110.24 188.364C110.342 187.726 110.308 187.073 110.141 186.448C109.973 185.823 109.676 185.24 109.268 184.738C108.859 184.235 108.35 183.825 107.772 183.532C104.242 181.863 98.1433 185.365 95.7491 187.899C95.6253 188.033 94.4591 189.578 93.6335 190.721C93.9637 189.98 94.3043 189.197 94.6655 188.486C95.9245 185.829 97.2455 183.47 98.4323 181.389C99.1134 180.205 99.7533 179.154 100.372 178.176C101.724 177.96 107.163 177.002 109.392 175.539C111.621 174.077 113.933 171.677 114.108 168.937C114.172 168.292 114.099 167.641 113.894 167.027C113.689 166.412 113.357 165.847 112.919 165.369C112.481 164.891 111.947 164.511 111.352 164.252C110.756 163.994 110.113 163.863 109.464 163.869Z" fill="black" stroke="black" stroke-width="2" mask="url(#path-28-inside-1_319_876)"/>
<path d="M358.104 449.897L357.619 446.683C357.784 446.683 373.573 444.201 381.128 436.95C382.748 435.395 382.707 434.272 382.531 433.561C380.787 426.351 354.079 415.022 300.89 399.005C292.128 396.368 283.645 393.855 275.513 391.445C222.406 375.707 187.318 365.314 184.893 353.521C184.284 350.575 185.615 347.712 188.856 345.034C207.256 329.78 280.528 324.249 283.645 324.012L283.882 327.266C283.129 327.318 208.546 332.942 190.94 347.537C187.566 350.328 187.958 352.244 188.092 352.862C190.156 362.75 228.216 374.038 276.442 388.324C284.574 390.734 293.067 393.248 301.829 395.884C372.882 417.277 384.131 426.269 385.71 432.799C386.267 435.096 385.483 437.28 383.388 439.298C375.039 447.27 358.754 449.794 358.104 449.897Z" fill="#FCFCFC" stroke="black" stroke-linecap="round" stroke-linejoin="round"/>
<path d="M191.126 343.355L195.832 344.385C219.403 332.159 283.149 327.318 283.8 327.266L283.562 324.012C280.611 324.238 212.654 329.368 191.126 343.355Z" fill="black" stroke="black" stroke-linecap="round" stroke-linejoin="round"/>
<path d="M366.824 453.378C367.431 451.423 367.388 449.325 366.702 447.396C366.016 445.467 364.723 443.812 363.016 442.677C358.269 439.587 349.6 435.776 334.977 434.735C309.043 432.881 291.437 442.44 283.098 450.443C274.76 458.446 276.617 468.014 288.661 473.865C300.704 479.715 309.352 481.26 319.538 479.725C329.724 478.191 346.37 470.167 352.263 466.16C358.156 462.154 365.235 458.456 366.783 453.533L366.824 453.378Z" fill="#FFB84C" stroke="black" stroke-linecap="round" stroke-linejoin="round"/>
<path d="M326.948 472.33C312.438 482.187 298.537 477.563 298.537 477.563L298.217 477.83C305.052 480.236 312.384 480.888 319.538 479.726C329.724 478.181 346.37 470.167 352.263 466.161C358.155 462.154 365.235 458.456 366.783 453.533V453.378C366.906 452.984 366.999 452.581 367.062 452.173C357.97 454.388 339.796 463.596 326.948 472.33Z" fill="#FCFCFC" stroke="black" stroke-linecap="round" stroke-linejoin="round"/>
<path d="M305.647 455.376C305.647 457.591 302.944 459.383 299.621 459.383C296.298 459.383 293.604 457.591 293.604 455.376C293.604 453.162 296.298 451.37 299.621 451.37C302.944 451.37 305.647 453.162 305.647 455.376Z" fill="#FCFCFC" stroke="black" stroke-linecap="round" stroke-linejoin="round"/>
<path d="M184.315 394.103L183.655 390.92C193.428 388.86 199.888 385.976 200.796 384.534C199.764 383.504 195.636 381.269 192.2 379.467C179.743 372.905 158.907 361.957 165.533 347.753C169.403 339.462 190.507 332.2 230.033 325.578C258.712 320.767 286.69 318.193 286.968 318.162L287.268 321.406C286.989 321.406 259.115 324.002 230.508 328.791C180.879 337.113 170.311 345.106 168.433 349.133C163.118 360.463 181.508 370.176 193.675 376.593C201.065 380.486 204.429 382.258 204.078 384.73C203.428 389.643 190.043 392.928 184.315 394.103Z" fill="#FCFCFC" stroke="black" stroke-linecap="round" stroke-linejoin="round"/>
<path d="M286.968 318.162C286.69 318.162 258.712 320.767 230.033 325.578C203.541 330.017 185.347 334.744 175.048 339.874L180.456 341.038C189.393 337.391 204.646 333.138 230.559 328.791C259.115 324.002 286.989 321.437 287.319 321.406L286.968 318.162Z" fill="black" stroke="black" stroke-linecap="round" stroke-linejoin="round"/>
<path d="M285.637 417.329L226.617 450.865L11.6001 376.439L76.9773 352.914L285.637 417.329Z" fill="#FCFCFC" stroke="black" stroke-linecap="round" stroke-linejoin="round"/>
<path d="M190.817 400.293L197.834 402.446L205.172 398.624L198.237 396.554L190.817 400.293Z" fill="black" stroke="black" stroke-linecap="round" stroke-linejoin="round"/>
<path d="M179.93 391.363L173.851 395.092L187.824 399.376L195.213 395.648L180.28 391.188L179.93 391.363Z" fill="black" stroke="black" stroke-linecap="round" stroke-linejoin="round"/>
<path d="M200.786 403.352L208.258 405.639L215.688 401.766L208.155 399.51L200.786 403.352Z" fill="black" stroke="black" stroke-linecap="round" stroke-linejoin="round"/>
<path d="M153.108 388.737L159.857 390.807L166.782 387.15L160.58 385.296L153.108 388.737Z" fill="black" stroke="black" stroke-linecap="round" stroke-linejoin="round"/>
<path d="M162.798 391.703L171.085 394.247L177.453 390.343L169.744 388.036L162.798 391.703Z" fill="black" stroke="black" stroke-linecap="round" stroke-linejoin="round"/>
<path d="M196.4 411.808L189.022 409.48L181.694 413.302L188.98 415.681L196.4 411.808Z" fill="black" stroke="black" stroke-linecap="round" stroke-linejoin="round"/>
<path d="M211.22 406.545L220.652 409.439L228.196 405.505L218.681 402.662L211.22 406.545Z" fill="black" stroke="black" stroke-linecap="round" stroke-linejoin="round"/>
<path d="M135.048 383.205L141.498 385.183L148.66 381.732L142.045 379.755L135.048 383.205Z" fill="black" stroke="black" stroke-linecap="round" stroke-linejoin="round"/>
<path d="M219.3 419.049L211.581 416.608L203.955 420.584L212.004 423.22L219.3 419.049Z" fill="black" stroke="black" stroke-linecap="round" stroke-linejoin="round"/>
<path d="M228.113 414.002L220.858 411.777L214.305 415.187L221.859 417.576L228.113 414.002Z" fill="black" stroke="black" stroke-linecap="round" stroke-linejoin="round"/>
<path d="M223.604 410.346L230.704 412.519L237.897 408.399L231.189 406.401L223.604 410.346Z" fill="black" stroke="black" stroke-linecap="round" stroke-linejoin="round"/>
<path d="M208.65 415.681L199.331 412.735L191.859 416.629L201.065 419.636L208.65 415.681Z" fill="black" stroke="black" stroke-linecap="round" stroke-linejoin="round"/>
<path d="M249.27 411.798L240.766 409.264L233.552 413.394L241.922 415.959L249.27 411.798Z" fill="black" stroke="black" stroke-linecap="round" stroke-linejoin="round"/>
<path d="M239.311 417.432L230.962 414.867L224.677 418.472L232.891 421.057L239.311 417.432Z" fill="black" stroke="black" stroke-linecap="round" stroke-linejoin="round"/>
<path d="M151.642 382.701L144.552 386.12L149.991 387.779L157.432 384.359L151.756 382.66L151.642 382.701Z" fill="black" stroke="black" stroke-linecap="round" stroke-linejoin="round"/>
<path d="M50.6407 377.345L56.7191 374.688L52.9833 373.472L46.5952 375.985L50.6407 377.345Z" fill="black" stroke="black" stroke-linecap="round" stroke-linejoin="round"/>
<path d="M52.374 370.979L59.7115 373.379L66.0067 370.629L58.5557 368.281L52.374 370.979Z" fill="black" stroke="black" stroke-linecap="round" stroke-linejoin="round"/>
<path d="M61.5796 366.952L69.0306 369.311L74.5002 366.921L66.9563 364.604L61.5796 366.952Z" fill="black" stroke="black" stroke-linecap="round" stroke-linejoin="round"/>
<path d="M82.5294 383.133L78.1538 381.702L71.3735 384.328L76.2858 385.986L82.5294 383.133Z" fill="black" stroke="black" stroke-linecap="round" stroke-linejoin="round"/>
<path d="M65.8522 377.674L59.8253 375.707L53.7056 378.385L59.6912 380.393L65.8522 377.674Z" fill="black" stroke="black" stroke-linecap="round" stroke-linejoin="round"/>
<path d="M72.1782 370.3L75.3774 371.309L80.6097 368.786L77.6891 367.89L72.1782 370.3Z" fill="black" stroke="black" stroke-linecap="round" stroke-linejoin="round"/>
<path d="M74.8922 380.641L68.9376 378.694L62.7456 381.423L68.1533 383.246L74.8922 380.641Z" fill="black" stroke="black" stroke-linecap="round" stroke-linejoin="round"/>
<path d="M125.935 380.414L132.024 382.279L138.99 378.838L133.035 377.067L125.935 380.414Z" fill="black" stroke="black" stroke-linecap="round" stroke-linejoin="round"/>
<path d="M108.752 375.141L113.768 376.686L120.311 373.256L115.347 371.772L108.752 375.141Z" fill="black" stroke="black" stroke-linecap="round" stroke-linejoin="round"/>
<path d="M83.1692 373.771L88.6182 371.237L83.6646 369.723L78.4014 372.267L83.1692 373.771Z" fill="black" stroke="black" stroke-linecap="round" stroke-linejoin="round"/>
<path d="M116.719 377.582L122.849 379.467L129.919 376.129L123.283 374.152L116.719 377.582Z" fill="black" stroke="black" stroke-linecap="round" stroke-linejoin="round"/>
<path d="M106.688 369.249L99.7017 372.37L105.78 374.234L112.333 370.877L106.781 369.218L106.688 369.249Z" fill="black" stroke="black" stroke-linecap="round" stroke-linejoin="round"/>
<path d="M90.5684 369.568L96.5436 371.402L103.582 368.26L97.2764 366.375L90.5684 369.568Z" fill="black" stroke="black" stroke-linecap="round" stroke-linejoin="round"/>
<path d="M80.7437 366.561L87.4929 368.631L94.17 365.449L87.6993 363.512L80.7437 366.561Z" fill="black" stroke="black" stroke-linecap="round" stroke-linejoin="round"/>
<path d="M168.773 400.808L178.743 403.96L185.017 400.787L174.48 397.563L168.773 400.808Z" fill="black" stroke="black" stroke-linecap="round" stroke-linejoin="round"/>
<path d="M181.705 404.897L188.815 407.142L195.09 403.877L188.02 401.704L181.705 404.897Z" fill="black" stroke="black" stroke-linecap="round" stroke-linejoin="round"/>
<path d="M217.897 410.871L208.475 407.977L202.056 411.324L211.375 414.27L217.897 410.871Z" fill="black" stroke="black" stroke-linecap="round" stroke-linejoin="round"/>
<path d="M191.746 408.059L199.124 410.397L205.512 407.07L198.051 404.784L191.746 408.059Z" fill="black" stroke="black" stroke-linecap="round" stroke-linejoin="round"/>
<path d="M91.6627 386.12L85.5739 384.132L79.2993 387.006L85.3881 389.056L91.6627 386.12Z" fill="black" stroke="black" stroke-linecap="round" stroke-linejoin="round"/>
<path d="M139.042 391.414L146.327 393.722L151.601 390.549L144.511 388.376L139.042 391.414Z" fill="black" stroke="black" stroke-linecap="round" stroke-linejoin="round"/>
<path d="M149.093 394.597L156.183 396.832L161.622 393.619L154.398 391.404L149.093 394.597Z" fill="black" stroke="black" stroke-linecap="round" stroke-linejoin="round"/>
<path d="M158.969 397.708L165.956 399.922L171.632 396.688L164.429 394.474L158.969 397.708Z" fill="black" stroke="black" stroke-linecap="round" stroke-linejoin="round"/>
<path d="M87.9163 377.551L83.3135 376.099L76.9771 379.034L81.8584 380.631L87.9163 377.551Z" fill="black" stroke="black" stroke-linecap="round" stroke-linejoin="round"/>
<path d="M77.555 365.582L84.4798 362.554L73.8811 359.382L73.9018 359.444L66.1411 362.08L77.555 365.582Z" fill="black" stroke="black" stroke-linecap="round" stroke-linejoin="round"/>
<path d="M62.5912 360.999L70.3932 358.341L68.164 357.672L60.6201 360.391L62.5912 360.999Z" fill="black" stroke="black" stroke-linecap="round" stroke-linejoin="round"/>
<path d="M267.67 415.032L278.331 418.225L281.096 416.649L270.59 413.446L267.67 415.032Z" fill="black" stroke="black" stroke-linecap="round" stroke-linejoin="round"/>
<path d="M80.2488 375.12L75.5428 373.637L69.4644 376.572L73.9536 378.045L80.2488 375.12Z" fill="black" stroke="black" stroke-linecap="round" stroke-linejoin="round"/>
<path d="M130.032 388.571L136.193 390.518L141.632 387.49L135.45 385.595L130.032 388.571Z" fill="black" stroke="black" stroke-linecap="round" stroke-linejoin="round"/>
<path d="M62.8076 374.399L66.4815 375.604L72.5291 372.689L69.1544 371.618L62.8076 374.399Z" fill="black" stroke="black" stroke-linecap="round" stroke-linejoin="round"/>
<path d="M120.404 385.533L127.174 387.665L132.561 384.709L125.646 382.587L120.404 385.533Z" fill="black" stroke="black" stroke-linecap="round" stroke-linejoin="round"/>
<path d="M114.965 386.09L108.897 384.174L102.55 387.408L108.917 389.489L114.965 386.09Z" fill="black" stroke="black" stroke-linecap="round" stroke-linejoin="round"/>
<path d="M124.542 389.117L117.813 386.985L111.725 390.405L118.288 392.547L124.542 389.117Z" fill="black" stroke="black" stroke-linecap="round" stroke-linejoin="round"/>
<path d="M143.851 395.215L136.43 392.867L130.063 396.41L137.71 398.902L143.851 395.215Z" fill="black" stroke="black" stroke-linecap="round" stroke-linejoin="round"/>
<path d="M186.09 408.554L178.939 406.298L171.601 409.996L178.804 412.354L186.09 408.554Z" fill="black" stroke="black" stroke-linecap="round" stroke-linejoin="round"/>
<path d="M153.675 398.316L146.606 396.091L140.435 399.799L147.349 402.065L153.675 398.316Z" fill="black" stroke="black" stroke-linecap="round" stroke-linejoin="round"/>
<path d="M175.966 405.361L156.462 399.201L150.094 402.961L168.681 409.038L175.966 405.361Z" fill="black" stroke="black" stroke-linecap="round" stroke-linejoin="round"/>
<path d="M133.582 391.971L127.401 390.024L121.116 393.474L127.256 395.483L133.582 391.971Z" fill="black" stroke="black" stroke-linecap="round" stroke-linejoin="round"/>
<path d="M103.334 380.136L108.701 381.836L114.15 379.065L108.783 377.427L103.334 380.136Z" fill="black" stroke="black" stroke-linecap="round" stroke-linejoin="round"/>
<path d="M93.623 377.077L100.362 379.199L105.77 376.5L98.8966 374.389L93.623 377.077Z" fill="black" stroke="black" stroke-linecap="round" stroke-linejoin="round"/>
<path d="M105.945 383.246L100.527 381.526L94.0771 384.627L99.6396 386.45L105.945 383.246Z" fill="black" stroke="black" stroke-linecap="round" stroke-linejoin="round"/>
<path d="M111.663 382.773L117.566 384.637L122.767 381.712L117.132 379.981L111.663 382.773Z" fill="black" stroke="black" stroke-linecap="round" stroke-linejoin="round"/>
<path d="M86.2339 374.739L90.6715 376.14L95.9037 373.482L91.7241 372.195L86.2339 374.739Z" fill="black" stroke="black" stroke-linecap="round" stroke-linejoin="round"/>
<path d="M97.5034 380.579L90.8677 378.478L84.7686 381.588L91.105 383.658L97.5034 380.579Z" fill="black" stroke="black" stroke-linecap="round" stroke-linejoin="round"/>
<path d="M49.2781 369.97L55.4185 367.282L48.0088 364.944L41.3008 367.364L49.2781 369.97Z" fill="black" stroke="black" stroke-linecap="round" stroke-linejoin="round"/>
<path d="M109.991 399.644L76.4093 388.324L76.3783 388.335L76.368 388.304L59.8044 382.721L48.793 387.583L99.5467 405.103L109.991 399.644Z" fill="black" stroke="black" stroke-linecap="round" stroke-linejoin="round"/>
<path d="M28.5348 380.599L39.0509 375.738L34.2005 374.1L22.7969 378.611L28.5348 380.599Z" fill="black" stroke="black" stroke-linecap="round" stroke-linejoin="round"/>
<path d="M47.6788 378.643L42.0441 376.748L31.4971 381.619L36.7396 383.422L47.6788 378.643Z" fill="black" stroke="black" stroke-linecap="round" stroke-linejoin="round"/>
<path d="M56.7498 381.701L50.7436 379.672L39.7734 384.472L45.7797 386.542L56.7498 381.701Z" fill="black" stroke="black" stroke-linecap="round" stroke-linejoin="round"/>
<path d="M138.484 409.244L132.241 407.143L121.363 412.632L128.174 414.981L138.484 409.244Z" fill="black" stroke="black" stroke-linecap="round" stroke-linejoin="round"/>
<path d="M119 402.672L112.839 400.602L102.364 406.071L108.164 408.08L119 402.672Z" fill="black" stroke="black" stroke-linecap="round" stroke-linejoin="round"/>
<path d="M129.351 406.164L121.9 403.651L111.043 409.069L118.494 411.644L129.351 406.164Z" fill="black" stroke="black" stroke-linecap="round" stroke-linejoin="round"/>
<path d="M99.0927 364.655L103.386 362.41L95.6459 360.041L90.7852 362.163L99.0927 364.655Z" fill="black" stroke="black" stroke-linecap="round" stroke-linejoin="round"/>
<path d="M102.075 365.541L106.668 366.921L111.59 364.913L106.348 363.306L102.075 365.541Z" fill="black" stroke="black" stroke-linecap="round" stroke-linejoin="round"/>
<path d="M156.348 415.269L141.271 410.181L130.93 415.938L145.244 420.872L156.348 415.269Z" fill="black" stroke="black" stroke-linecap="round" stroke-linejoin="round"/>
<path d="M109.991 367.91L115.202 369.466L119.857 367.437L114.872 365.912L109.991 367.91Z" fill="black" stroke="black" stroke-linecap="round" stroke-linejoin="round"/>
<path d="M34.139 371.783L34.1906 371.762L34.2112 371.814L43.4064 374.914L49.7532 372.411L37.978 368.559L31.4971 370.897L34.139 371.783Z" fill="black" stroke="black" stroke-linecap="round" stroke-linejoin="round"/>
<path d="M81.5488 359.403L87.5654 361.205L92.4571 359.073L86.6469 357.291L81.5488 359.403Z" fill="black" stroke="black" stroke-linecap="round" stroke-linejoin="round"/>
<path d="M63.7674 363.625L57.2245 361.617L51.373 363.728L58.4319 365.963L63.7674 363.625Z" fill="black" stroke="black" stroke-linecap="round" stroke-linejoin="round"/>
<path d="M232.035 432.058L223.046 429.112L216.029 433.088L224.77 436.033L232.035 432.058Z" fill="black" stroke="black" stroke-linecap="round" stroke-linejoin="round"/>
<path d="M264.997 416.505L257.35 420.687L268.145 423.993L275.709 419.708L264.997 416.505Z" fill="black" stroke="black" stroke-linecap="round" stroke-linejoin="round"/>
<path d="M78.2467 358.424L83.3757 356.302L77.2043 354.417L71.6006 356.436L78.2467 358.424Z" fill="black" stroke="black" stroke-linecap="round" stroke-linejoin="round"/>
<path d="M254.688 422.139L247.959 425.827L258.867 429.267L265.544 425.476L254.688 422.139Z" fill="black" stroke="black" stroke-linecap="round" stroke-linejoin="round"/>
<path d="M224.986 438.392L213.769 444.531L225.079 448.424L236.142 442.152L224.986 438.392Z" fill="black" stroke="black" stroke-linecap="round" stroke-linejoin="round"/>
<path d="M245.327 427.269L237.484 431.553L248.485 435.158L256.287 430.729L245.327 427.269Z" fill="black" stroke="black" stroke-linecap="round" stroke-linejoin="round"/>
<path d="M31.5174 373.009L28.2047 372.082L16.2954 376.377L19.6494 377.53L31.5174 373.009Z" fill="black" stroke="black" stroke-linecap="round" stroke-linejoin="round"/>
<path d="M222.18 437.445L213.49 434.52L202.603 440.669L210.993 443.573L222.18 437.445Z" fill="black" stroke="black" stroke-linecap="round" stroke-linejoin="round"/>
<path d="M188.598 426.135L179.506 423.066L168.381 428.854L177.391 431.965L188.598 426.135Z" fill="black" stroke="black" stroke-linecap="round" stroke-linejoin="round"/>
<path d="M210.724 433.592L202.881 430.945L202.675 431.059L202.551 430.832L191.446 427.093L180.218 432.944L199.868 439.731L210.724 433.592Z" fill="black" stroke="black" stroke-linecap="round" stroke-linejoin="round"/>
<path d="M176.648 422.108L169.444 419.677L158.412 425.425L165.554 427.886L176.648 422.108Z" fill="black" stroke="black" stroke-linecap="round" stroke-linejoin="round"/>
<path d="M245.926 436.6L234.873 432.985L227.577 436.971L238.671 440.72L245.926 436.6Z" fill="black" stroke="black" stroke-linecap="round" stroke-linejoin="round"/>
<path d="M118.422 370.423L123.108 371.824L127.669 369.815L123.046 368.404L118.422 370.423Z" fill="black" stroke="black" stroke-linecap="round" stroke-linejoin="round"/>
<path d="M166.596 418.72L159.248 416.237L148.103 421.861L155.585 424.446L166.596 418.72Z" fill="black" stroke="black" stroke-linecap="round" stroke-linejoin="round"/>
<path d="M172.901 386.708L180.063 388.85L183.758 386.934L177.225 384.946L172.901 386.708Z" fill="black" stroke="black" stroke-linecap="round" stroke-linejoin="round"/>
<path d="M209.465 424.673L201.261 421.984L194.119 425.703L202.643 428.576L209.465 424.673Z" fill="black" stroke="black" stroke-linecap="round" stroke-linejoin="round"/>
<path d="M186.287 417.082L179.001 414.703L172.117 418.287L179.321 420.718L186.287 417.082Z" fill="black" stroke="black" stroke-linecap="round" stroke-linejoin="round"/>
<path d="M262.066 415.629L252.159 412.663L244.78 416.835L254.45 419.801L262.066 415.629Z" fill="black" stroke="black" stroke-linecap="round" stroke-linejoin="round"/>
<path d="M220.26 428.206L212.251 425.579L205.399 429.503L213.263 432.15L220.26 428.206Z" fill="black" stroke="black" stroke-linecap="round" stroke-linejoin="round"/>
<path d="M251.787 421.253L242.18 418.308L235.719 421.954L245.09 424.92L251.787 421.253Z" fill="black" stroke="black" stroke-linecap="round" stroke-linejoin="round"/>
<path d="M230.301 422.52L222.118 419.935L214.791 424.127L222.819 426.753L230.301 422.52Z" fill="black" stroke="black" stroke-linecap="round" stroke-linejoin="round"/>
<path d="M242.458 426.362L233.139 423.416L225.616 427.67L234.657 430.626L242.458 426.362Z" fill="black" stroke="black" stroke-linecap="round" stroke-linejoin="round"/>
<path d="M198.371 421.037L189.166 418.029L182.169 421.675L191.271 424.735L198.371 421.037Z" fill="black" stroke="black" stroke-linecap="round" stroke-linejoin="round"/>
<path d="M118.835 395.019L112.251 392.867L105.832 395.946L112.654 398.243L118.835 395.019Z" fill="black" stroke="black" stroke-linecap="round" stroke-linejoin="round"/>
<path d="M128.205 398.078L121.714 395.957L115.501 399.211L121.735 401.302L128.205 398.078Z" fill="black" stroke="black" stroke-linecap="round" stroke-linejoin="round"/>
<path d="M109.268 391.888L103.716 390.065L97.6895 393.206L102.88 394.957L109.268 391.888Z" fill="black" stroke="black" stroke-linecap="round" stroke-linejoin="round"/>
<path d="M165.936 410.428L141.539 402.446L134.965 405.762L159.073 413.889L165.936 410.428Z" fill="black" stroke="black" stroke-linecap="round" stroke-linejoin="round"/>
<path d="M176.111 413.755L168.856 411.386L161.962 414.867L169.259 417.329L176.111 413.755Z" fill="black" stroke="black" stroke-linecap="round" stroke-linejoin="round"/>
<path d="M138.618 401.488L131.136 399.047L124.645 402.281L132.075 404.794L138.618 401.488Z" fill="black" stroke="black" stroke-linecap="round" stroke-linejoin="round"/>
<path d="M145.12 378.406L151.642 380.362L156.152 378.509L149.537 376.49L145.12 378.406Z" fill="black" stroke="black" stroke-linecap="round" stroke-linejoin="round"/>
<path d="M154.955 381.351L160.445 382.989L164.78 381.145L159.434 379.508L154.955 381.351Z" fill="black" stroke="black" stroke-linecap="round" stroke-linejoin="round"/>
<path d="M163.707 383.968L169.599 385.719L173.944 383.937L168.02 382.134L163.707 383.968Z" fill="black" stroke="black" stroke-linecap="round" stroke-linejoin="round"/>
<path d="M183.056 389.746L189.021 391.528L189.011 391.517L192.85 389.715L186.72 387.84L183.056 389.746Z" fill="black" stroke="black" stroke-linecap="round" stroke-linejoin="round"/>
<path d="M100.826 389.128L94.686 387.109L88.3701 390.065L94.8304 392.238L100.826 389.128Z" fill="black" stroke="black" stroke-linecap="round" stroke-linejoin="round"/>
<path d="M135.925 375.656L141.89 377.437L146.338 375.511L140.115 373.616L135.925 375.656Z" fill="black" stroke="black" stroke-linecap="round" stroke-linejoin="round"/>
<path d="M126.317 372.782L132.86 374.739L137.07 372.689L130.847 370.784L126.317 372.782Z" fill="black" stroke="black" stroke-linecap="round" stroke-linejoin="round"/>
<path d="M233.955 404.959L240.497 406.916L243.532 405.185L237.216 403.259L233.955 404.959Z" fill="black" stroke="black" stroke-linecap="round" stroke-linejoin="round"/>
<path d="M221.447 401.22L230.962 404.063L234.254 402.353L224.811 399.469L221.447 401.22Z" fill="black" stroke="black" stroke-linecap="round" stroke-linejoin="round"/>
<path d="M267.68 412.56L257.732 409.521L254.78 411.18L264.749 414.167L267.68 412.56Z" fill="black" stroke="black" stroke-linecap="round" stroke-linejoin="round"/>
<path d="M243.366 407.771L251.891 410.315L254.863 408.646L246.38 406.051L243.366 407.771Z" fill="black" stroke="black" stroke-linecap="round" stroke-linejoin="round"/>
<path d="M192.127 392.455L198.041 394.226L201.808 392.444L195.946 390.663L192.127 392.455Z" fill="black" stroke="black" stroke-linecap="round" stroke-linejoin="round"/>
<path d="M201.158 395.153L207.938 397.182L211.405 395.38L204.904 393.392L201.158 395.153Z" fill="black" stroke="black" stroke-linecap="round" stroke-linejoin="round"/>
<path d="M210.92 398.078L218.454 400.324L221.849 398.562L214.367 396.276L210.92 398.078Z" fill="black" stroke="black" stroke-linecap="round" stroke-linejoin="round"/>
<path d="M226.617 450.866L226.122 457.53L285.018 424.776L285.637 417.329L226.617 450.866Z" fill="#FCFCFC" stroke="black" stroke-width="1.5" stroke-linecap="round" stroke-linejoin="round"/>
<path d="M277.071 429.112V437.187L284.615 433.119L285.018 424.776L277.071 429.112Z" fill="#FCFCFC" stroke="black" stroke-linecap="round" stroke-linejoin="round"/>
<path d="M277.071 437.187L266.679 435.158L277.278 429.112L277.071 437.187Z" fill="black" stroke="black" stroke-linecap="round" stroke-linejoin="round"/>
<path d="M226.122 457.529L11.5586 382.258L11.5999 376.438L226.617 450.865L226.122 457.529Z" fill="#FCFCFC" stroke="black" stroke-width="1.5" stroke-linecap="round" stroke-linejoin="round"/>
<path d="M274.729 333.859L212.334 356.313L326.225 385.255L389.786 358.404L274.729 333.859Z" fill="black" stroke="black" stroke-linecap="round" stroke-linejoin="round"/>
<path d="M212.334 356.312V359.845L326.04 389.9L326.225 385.255L212.334 356.312Z" fill="#FCFCFC" stroke="black" stroke-width="1.5" stroke-linecap="round" stroke-linejoin="round"/>
<path d="M326.226 385.255L389.787 358.403L389.322 362.286L326.04 389.9L326.226 385.255Z" fill="#FCFCFC" stroke="black" stroke-width="1.5" stroke-linecap="round" stroke-linejoin="round"/>
<path d="M282.077 305.843L279.507 345.559L275.916 347.104L340.87 362.471L344.461 360.937L347.289 317.883L282.077 305.843Z" fill="#FCFCFC" stroke="black" stroke-linecap="round" stroke-linejoin="round"/>
<path d="M278.485 307.388L275.916 347.105L340.87 362.472L343.697 319.429L278.485 307.388Z" fill="black" stroke="black" stroke-linecap="round" stroke-linejoin="round"/>
<path d="M492.109 56.9568L488.229 55.4839L482.79 55.8238L482.347 57.307L179.031 75.3215C178.23 75.368 177.47 75.6967 176.888 76.2492C176.306 76.8018 175.939 77.5423 175.853 78.3393L155.832 285.264C155.763 285.946 155.95 286.628 156.359 287.179C156.767 287.73 157.367 288.108 158.041 288.241L440.891 342.325L437.795 344.21L450.334 346.641L451.789 346.445L455.329 344.735C455.904 344.57 456.419 344.241 456.811 343.79C457.203 343.338 457.455 342.783 457.537 342.191L494.184 60.2424C494.266 59.5406 494.106 58.8316 493.728 58.2337C493.351 57.6358 492.779 57.1851 492.109 56.9568Z" fill="#FCFCFC" stroke="black" stroke-width="1.5" stroke-linecap="round" stroke-linejoin="round"/>
<path d="M174.037 76.3513L151.704 286.963C151.63 287.646 151.816 288.331 152.225 288.883C152.634 289.434 153.237 289.812 153.913 289.94L449.746 346.517C450.157 346.592 450.578 346.583 450.986 346.491C451.393 346.399 451.778 346.225 452.116 345.981C452.455 345.736 452.74 345.426 452.955 345.069C453.17 344.711 453.311 344.314 453.368 343.901L490.076 58.7385C490.129 58.2929 490.084 57.8412 489.945 57.4146C489.805 56.9881 489.574 56.5971 489.267 56.2687C488.961 55.9403 488.587 55.6825 488.17 55.5132C487.754 55.3438 487.305 55.267 486.856 55.2881L177.256 73.3335C176.447 73.3684 175.676 73.6922 175.085 74.246C174.494 74.7998 174.122 75.5469 174.037 76.3513Z" fill="black" stroke="black" stroke-linecap="round" stroke-linejoin="round"/>
<path d="M180.837 82.7064L162.034 257.403L445.07 300.734L476.959 66.3296L180.837 82.7064Z" fill="#1A1A1A" stroke="black" stroke-linecap="round" stroke-linejoin="round"/>
<path d="M212.004 198.487C257.298 184.644 307.98 169.4 354.895 155.887C402.367 142.198 440.551 137.048 467.29 135.524" stroke="#FFB84C" stroke-width="1.5" stroke-linecap="round" stroke-linejoin="round"/>
<path d="M178.299 108.837C178.299 108.837 269.765 110.897 369.663 151.675" stroke="#FFB84C" stroke-width="1.5" stroke-linecap="round" stroke-linejoin="round"/>
<path d="M250.982 271.863C250.982 271.863 320.415 206.83 386.174 172.593C441.572 143.754 465.432 143.063 465.432 143.063" stroke="#FFB84C" stroke-width="1.5" stroke-linecap="round" stroke-linejoin="round"/>
<path d="M153.912 289.93L449.745 346.517C450.156 346.592 450.578 346.583 450.986 346.491C451.393 346.399 451.778 346.225 452.116 345.981C452.455 345.736 452.74 345.426 452.955 345.069C453.17 344.711 453.311 344.314 453.368 343.901L456.928 316.194L153.82 266.94L151.704 286.963C151.632 287.644 151.82 288.327 152.229 288.876C152.638 289.426 153.239 289.802 153.912 289.93Z" fill="#FCFCFC" stroke="#686868" stroke-width="1.5" stroke-linecap="round" stroke-linejoin="round"/>
<path d="M162.034 257.403L204.749 263.933L213.768 182.45L170.435 179.35L162.034 257.403Z" fill="black" stroke="black" stroke-linecap="round" stroke-linejoin="round"/>
<path d="M209.032 207.737L199.96 206.696L196.534 233.476L206.039 234.702L209.032 207.737Z" fill="#FFB84C" stroke="black" stroke-linecap="round" stroke-linejoin="round"/>
<path d="M195.048 204.904C195.037 204.97 195.012 205.033 194.976 205.089L209.135 206.717L211.426 185.983L197.721 184.953L195.048 204.904Z" fill="#FFB84C" stroke="black" stroke-linecap="round" stroke-linejoin="round"/>
<path d="M195.513 233.342L198.939 206.583L185.399 205.028L182.097 231.612L195.513 233.342Z" fill="#FFB84C" stroke="black" stroke-linecap="round" stroke-linejoin="round"/>
<path d="M198.361 234.753L181.962 232.631L179.011 256.424L195.512 258.948L198.361 234.753Z" fill="#FFB84C" stroke="black" stroke-linecap="round" stroke-linejoin="round"/>
<path d="M194.016 204.986C194.001 204.915 194.001 204.841 194.016 204.77L196.678 184.932L187.958 184.304L185.512 204.008L194.016 204.986Z" fill="#FFB84C" stroke="black" stroke-linecap="round" stroke-linejoin="round"/>
<path d="M199.382 234.887L196.534 259.102L203.232 260.132L205.925 235.732L199.382 234.887Z" fill="#FFB84C" stroke="black" stroke-linecap="round" stroke-linejoin="round"/>
</svg>
